<svg width="16" height="20" viewBox="0 0 16 20" fill="none" xmlns="http://www.w3.org/2000/svg">
<path d="M8 10.188V1L14.6863 4.3411V10.188H8Z" fill="#3BAA53"/>
<path d="M8.10423 10.3969H1C2.00295 15.4085 6.15405 18.0535 8.10423 18.7496V10.3969Z" fill="#9CCDA7"/>
<path d="M1.20898 9.56157V4.96756C1.20898 4.80141 1.27503 4.64207 1.39258 4.52459C1.51014 4.4071 1.66958 4.3411 1.83583 4.3411L8.10426 1L14.3727 4.3411C14.5389 4.3411 14.6984 4.4071 14.8159 4.52459C14.9335 4.64207 14.9995 4.80141 14.9995 4.96756V9.56157C14.9995 16.1406 9.41233 18.3202 8.29672 18.6899C8.172 18.7328 8.03652 18.7328 7.91181 18.6899C6.7962 18.3202 1.20898 16.1406 1.20898 9.56157Z" stroke="#269C40" stroke-width="1.25" stroke-linecap="round" stroke-linejoin="round"/>
</svg>
