<svg width="19" height="19" viewBox="0 0 19 19" fill="none" xmlns="http://www.w3.org/2000/svg">
<circle cx="9.5" cy="9.5" r="9.5" fill="#FF5348"/>
<path d="M8.04706 13.8286C8.29309 14.3558 8.82128 14.7271 9.44082 14.7333C10.0604 14.7394 10.5958 14.3785 10.8522 13.8563L8.04706 13.8286Z" fill="white"/>
<path d="M13.8794 13.1039L13.1273 11.8216C12.7799 11.2297 12.5999 10.554 12.6067 9.86808L12.6177 8.75145C12.6316 7.34175 11.7027 6.14014 10.4202 5.74305L10.4281 4.94356C10.4329 4.45228 10.0373 4.04881 9.54603 4.04396C9.05475 4.03911 8.65128 4.43469 8.64643 4.92598L8.63854 5.72547C7.34844 6.09716 6.39599 7.2802 6.38207 8.6899L6.37105 9.80653C6.36428 10.4924 6.171 11.164 5.81244 11.7489L5.03511 13.0161C4.993 13.0848 4.99126 13.1703 5.03022 13.2406C5.06918 13.3109 5.14224 13.3548 5.22241 13.3556L13.685 13.4392C13.7652 13.44 13.8396 13.3975 13.8799 13.3284C13.9202 13.2593 13.9197 13.1729 13.8794 13.1039Z" fill="white"/>
</svg>
