<svg width="52" height="52" viewBox="0 0 52 52" fill="none" xmlns="http://www.w3.org/2000/svg">
<path d="M50.6607 44.2127L6.42155 0H4.55869L4.17831 0.965975C3.17437 3.51557 2.74541 6.1233 2.938 8.50687C3.15751 11.2239 4.19031 13.5762 5.92492 15.3097L24.5333 33.907L26.9877 31.4537L44.1908 50.6789C45.9023 52.3893 48.8478 52.4907 50.6607 50.6789C52.4447 48.896 52.4447 45.9955 50.6607 44.2127Z" fill="#FF5348" fill-opacity="0.8"/>
<path d="M15.9117 29.6001L1.33778 44.1653C-0.445928 45.9478 -0.445928 48.8487 1.33778 50.6311C3.03224 52.3249 5.96356 52.4742 7.80763 50.6311L22.3816 36.0659L15.9117 29.6001Z" fill="#FF5348" fill-opacity="0.8"/>
<path d="M49.8075 8.65804L41.5402 16.9201L39.3833 14.7648L47.6506 6.5026L45.4941 4.34724L37.2268 12.6093L35.0703 10.454L43.3376 2.19187L41.1811 0.0366211L30.3977 10.8134C29.0784 12.1318 28.291 13.8823 28.1796 15.7428C28.1513 16.2141 28.0444 16.6777 27.8672 17.1187L34.872 24.1194C35.3132 23.9419 35.7771 23.8353 36.2485 23.8071C38.1101 23.696 39.8617 22.9086 41.1811 21.5904L51.964 10.8135L49.8075 8.65804Z" fill="#FF5348" fill-opacity="0.8"/>
</svg>
