<svg width="21" height="23" viewBox="0 0 21 23" fill="none" xmlns="http://www.w3.org/2000/svg">
<circle cx="10" cy="10" r="10" fill="#00905C"/>
<circle cx="10" cy="10" r="9.75" stroke="white" stroke-opacity="0.5" stroke-width="0.5"/>
<g filter="url(#filter0_d)">
<path d="M4 9.61691C4.67089 9.32483 5.34178 9.0295 6.01588 8.73739C6.16675 8.67319 6.31762 8.60578 6.49417 8.52875C6.51664 8.63147 6.55195 8.72776 6.55195 8.82407C6.55516 10.9105 6.55516 12.9971 6.55837 15.0836C6.55837 15.183 6.52948 15.2312 6.4396 15.2697C5.68204 15.594 4.9309 15.9246 4.17976 16.2552C4.14445 16.2712 4.10914 16.2905 4.07383 16.3098C4.05136 16.3098 4.02568 16.3098 4.00321 16.3098C4 14.0789 4 11.8479 4 9.61691Z" fill="white"/>
<path d="M16.3293 14.0925C15.5493 14.436 14.766 14.7763 13.9859 15.1165C13.925 15.1422 13.8608 15.1615 13.7773 15.1935C13.7773 15.1293 13.7773 15.0876 13.7773 15.0459C13.7773 12.969 13.7773 10.8921 13.7805 8.81527C13.7805 8.61626 13.8512 8.45896 14.063 8.36908C14.8238 8.04808 15.575 7.70783 16.3293 7.3772C16.3293 9.61456 16.3293 11.8552 16.3293 14.0925Z" fill="white"/>
<path d="M10.1587 12.3665C9.79594 11.9621 9.44281 11.5833 9.10897 11.1916C8.47985 10.4566 7.88918 9.69263 7.42374 8.83875C7.19904 8.42466 7.00002 8.00094 6.93903 7.52907C6.85557 6.87743 7.00323 6.26754 7.3146 5.69936C7.96626 4.50525 9.31766 3.83115 10.6273 4.03658C12.0237 4.25487 13.0926 5.28849 13.3622 6.65594C13.5003 7.36214 13.3302 8.00415 13.0156 8.62689C12.6271 9.39726 12.1296 10.0938 11.5807 10.7551C11.157 11.2655 10.7011 11.7535 10.2614 12.251C10.2293 12.2831 10.2036 12.312 10.1587 12.3665ZM11.4844 7.01867C11.4844 6.29001 10.8906 5.69295 10.1651 5.69295C9.43642 5.69295 8.83937 6.2868 8.83937 7.01226C8.83937 7.74093 9.43319 8.33798 10.1587 8.33798C10.8874 8.3412 11.4844 7.74735 11.4844 7.01867Z" fill="white"/>
<path d="M13.048 9.99738C13.048 11.7372 13.048 13.4481 13.048 15.1655C11.1317 15.1655 9.21213 15.1655 7.28613 15.1655C7.28613 13.4546 7.28613 11.7405 7.28613 10.0006C8.13033 11.2397 9.1126 12.3343 10.1655 13.3775C11.2184 12.3375 12.2006 11.2429 13.048 9.99738Z" fill="white"/>
</g>
<defs>
<filter id="filter0_d" x="0" y="2" width="20.3293" height="20.3098" filterUnits="userSpaceOnUse" color-interpolation-filters="sRGB">
<feFlood flood-opacity="0" result="BackgroundImageFix"/>
<feColorMatrix in="SourceAlpha" type="matrix" values="0 0 0 0 0 0 0 0 0 0 0 0 0 0 0 0 0 0 127 0"/>
<feOffset dy="2"/>
<feGaussianBlur stdDeviation="2"/>
<feColorMatrix type="matrix" values="0 0 0 0 0 0 0 0 0 0.564706 0 0 0 0 0.360784 0 0 0 0.1 0"/>
<feBlend mode="normal" in2="BackgroundImageFix" result="effect1_dropShadow"/>
<feBlend mode="normal" in="SourceGraphic" in2="effect1_dropShadow" result="shape"/>
</filter>
</defs>
</svg>
