<svg width="20" height="20" viewBox="0 0 20 20" fill="none" xmlns="http://www.w3.org/2000/svg">
<circle cx="10" cy="10" r="10" fill="#FAA500"/>
<circle cx="10" cy="10" r="9.75" stroke="white" stroke-opacity="0.5" stroke-width="0.5"/>
<path d="M4.8967 5.44808C4.8967 5.20061 4.69596 5 4.44839 5C4.20074 5 4 5.20061 4 5.44808V13.4777C4 13.7251 4.20074 13.9258 4.44839 13.9258C4.69596 13.9258 4.8967 13.7251 4.8967 13.4777V5.44808Z" fill="white"/>
<path fill-rule="evenodd" clip-rule="evenodd" d="M16.2423 10.3929C16.3612 10.3929 16.4753 10.4402 16.5593 10.5242C16.6434 10.6083 16.6906 10.7222 16.6906 10.841V13.478C16.6906 13.5968 16.6434 13.7108 16.5593 13.7948C16.4753 13.8788 16.3612 13.9261 16.2423 13.9261C16.1234 13.9261 16.0093 13.8788 15.9253 13.7948C15.8412 13.7108 15.7939 13.5968 15.7939 13.478V10.841C15.7939 10.7222 15.8412 10.6083 15.9253 10.5242C16.0093 10.4402 16.1234 10.3929 16.2423 10.3929Z" fill="white"/>
<path d="M16.6942 9.94733H4.21289V12.0264H16.6942V9.94733Z" fill="white"/>
<path fill-rule="evenodd" clip-rule="evenodd" d="M8.78613 8.90197H15.7082C15.7503 8.63577 15.7391 8.36381 15.675 8.10201C15.611 7.84019 15.4955 7.59371 15.3353 7.37689C15.1751 7.16007 14.9734 6.97726 14.7419 6.83908C14.5103 6.70089 14.2536 6.61009 13.9867 6.57196H8.78613V8.90197Z" fill="white"/>
<path d="M6.83882 8.90976C7.48439 8.90976 8.00772 8.38643 8.00772 7.74086C8.00772 7.0953 7.48439 6.57196 6.83882 6.57196C6.19326 6.57196 5.66992 7.0953 5.66992 7.74086C5.66992 8.38643 6.19326 8.90976 6.83882 8.90976Z" fill="white"/>
</svg>
