<svg width="20" height="20" viewBox="0 0 20 20" fill="none" xmlns="http://www.w3.org/2000/svg">
<circle cx="10" cy="10" r="10" fill="#0094E7"/>
<circle cx="10" cy="10" r="9.75" stroke="white" stroke-opacity="0.5" stroke-width="0.5"/>
<path d="M7.5571 11.6546L8.62386 12.1435L8.87106 13.8461C8.92116 14.1928 9.21881 14.4427 9.5593 14.4425C9.59234 14.4425 9.62614 14.4401 9.65994 14.4353C10.0408 14.3801 10.3047 14.0266 10.2492 13.646L9.9476 11.5682C9.91371 11.3342 9.76331 11.1336 9.54846 11.0352L8.44034 10.5274C8.44043 10.5219 8.44205 10.5168 8.44205 10.5111L8.44726 9.20789C7.80203 8.26084 7.94198 7.05984 8.01149 6.66942L6.62191 6.54853C6.64754 7.00663 6.62604 8.00352 6.06135 8.7461L6.05937 9.24511L5.51528 8.58051L5.80064 8.42507C6.24883 7.76429 6.24417 6.87045 6.2203 6.5136L5.7399 6.47178C5.54869 6.45526 5.37734 6.58837 5.34585 6.77765L5.24801 7.36652L4.31136 7.87688C4.1551 7.96197 4.04515 8.1122 4.01093 8.2867C3.97713 8.46118 4.02261 8.64171 4.13531 8.77922L5.52076 10.4713C5.63848 10.6155 5.80989 10.6901 5.98282 10.6901C6.01259 10.6901 6.04152 10.6796 6.07111 10.6751C6.07541 10.7052 6.07802 10.7355 6.08451 10.7647C6.08379 10.7902 6.08094 10.8151 6.08309 10.841L6.25835 12.9806L5.84408 15.1216C5.771 15.4991 6.01777 15.8646 6.39515 15.9377C6.44023 15.9462 6.48453 15.9505 6.52845 15.9505C6.85528 15.9505 7.14714 15.7191 7.21124 15.3862L7.6438 13.1514C7.65582 13.089 7.65934 13.0255 7.6543 12.9622L7.54742 11.6577C7.55071 11.6567 7.55381 11.6555 7.5571 11.6546Z" fill="white"/>
<path d="M8.34666 9.02244L8.96098 9.50608C9.06674 9.58922 9.19691 9.63395 9.33016 9.63395C9.35124 9.63395 9.37215 9.63275 9.39315 9.63062L10.9625 9.46417L10.4413 13.7899C10.4215 13.9535 10.5381 14.1021 10.7017 14.1219C10.7136 14.1233 10.7258 14.124 10.7378 14.124C10.8867 14.124 11.0157 14.0129 11.0336 13.8614L11.574 9.37634C11.8196 9.2815 11.9822 9.03302 11.953 8.75877C11.9342 8.58011 11.8362 8.42961 11.6996 8.33374L11.7303 8.07878L12.6071 8.37128C13.0776 8.5283 13.5763 8.5831 14.0694 8.5324L14.8914 8.44747C15.0216 8.43407 15.125 8.33241 15.1405 8.2028L15.348 6.48333C15.3581 6.399 15.3293 6.31446 15.2699 6.25384C15.21 6.19322 15.1261 6.16289 15.0417 6.17166L14.6928 6.20761C13.9796 6.28127 13.2611 6.1332 12.6346 5.78384L12.0463 5.45544L12.061 5.33403C12.0808 5.17042 11.9642 5.02177 11.8007 5.00194C11.6386 4.9835 11.4878 5.09872 11.4687 5.26253L11.109 8.24803L9.50855 8.41778L8.82415 7.87898L8.96132 7.37917C8.99009 7.27401 8.97063 7.16155 8.90849 7.07215C8.84634 6.98258 8.74759 6.92543 8.63875 6.91611L8.06113 6.86586C8.01026 7.1425 7.86343 8.18772 8.34666 9.02244Z" fill="white"/>
<path d="M8.08244 6.2602C8.6883 6.0443 9.00387 5.37877 8.7886 4.7735C8.5729 4.16826 7.90718 3.85207 7.30174 4.0678C6.69623 4.28347 6.38068 4.94882 6.59596 5.55428C6.81164 6.15972 7.47737 6.47569 8.08244 6.2602Z" fill="white"/>
<path d="M15.9094 9.86059C15.8147 9.82252 15.7062 9.84582 15.6355 9.91923L14.259 11.3503C14.2042 11.4077 14.1394 11.4549 14.0678 11.4899L12.7613 12.1311C12.6 12.2102 12.4764 12.3497 12.4174 12.5192L12.0171 13.6691C11.9498 13.8621 11.7999 14.0148 11.6079 14.0851L8.50897 15.222C8.45263 15.2429 8.40406 15.2808 8.37026 15.3304L8.08847 15.7459C8.06283 15.7839 8.06049 15.8328 8.08188 15.8732C8.10322 15.9136 8.1452 15.9389 8.19105 15.9389H15.4128C15.7735 15.9389 16.0662 15.6464 16.0662 15.2856V10.0929C16.0661 9.99059 16.0039 9.89892 15.9094 9.86059Z" fill="white"/>
</svg>
