<svg width="20" height="20" viewBox="0 0 20 20" fill="none" xmlns="http://www.w3.org/2000/svg">
<circle cx="10" cy="10" r="10" fill="#C90000"/>
<circle cx="10" cy="10" r="9.75" stroke="white" stroke-opacity="0.5" stroke-width="0.5"/>
<path d="M15.3081 13.87L5.43223 4H5.01636L4.93145 4.21564C4.70733 4.78481 4.61157 5.36696 4.65456 5.89906C4.70357 6.5056 4.93412 7.03072 5.32136 7.41772L9.47546 11.5693L10.0234 11.0217L13.8638 15.3135C14.2459 15.6953 14.9034 15.7179 15.3081 15.3135C15.7064 14.9155 15.7064 14.268 15.3081 13.87Z" fill="white"/>
<path d="M7.55209 10.6089L4.29864 13.8604C3.90045 14.2583 3.90045 14.9059 4.29864 15.3038C4.67691 15.6819 5.3313 15.7153 5.74296 15.3038L8.99643 12.0523L7.55209 10.6089Z" fill="white"/>
<path d="M14.8979 5.92463L13.0523 7.76905L12.5708 7.2879L14.4164 5.44346L13.935 4.9623L12.0894 6.80671L11.608 6.32555L13.4536 4.48114L12.9722 4L10.5649 6.40579C10.2704 6.70011 10.0946 7.0909 10.0697 7.50621C10.0634 7.61143 10.0396 7.71494 10 7.81338L11.5637 9.37621C11.6622 9.33658 11.7658 9.31278 11.871 9.30648C12.2866 9.28169 12.6776 9.1059 12.9722 8.81163L15.3793 6.40582L14.8979 5.92463Z" fill="white"/>
</svg>
