<svg width="22" height="20" viewBox="0 0 22 20" fill="none" xmlns="http://www.w3.org/2000/svg">
<path d="M7.5 0C10.6018 0 13.125 2.52349 13.125 5.625C13.125 9.77479 7.93518 14.707 7.71422 14.9152C7.65381 14.9716 7.5769 15 7.5 15C7.4231 15 7.34619 14.9716 7.28575 14.9152C7.06482 14.707 1.875 9.77479 1.875 5.625C1.875 2.52349 4.39819 0 7.5 0ZM7.5 8.75001C9.22304 8.75001 10.625 7.34804 10.625 5.625C10.625 3.90196 9.22301 2.49999 7.5 2.49999C5.77699 2.49999 4.37499 3.90199 4.37499 5.625C4.37499 7.34801 5.77696 8.75001 7.5 8.75001Z" fill="#179EBB"/>
<path d="M15.0285 19.2904L15.027 19.2918C14.8796 19.4296 14.6899 19.5 14.5 19.5C14.3101 19.5 14.1205 19.4296 13.973 19.2919L13.9715 19.2904C13.8662 19.1912 12.6703 18.0548 11.497 16.4806C10.3417 14.9306 9.125 12.8483 9.125 10.875C9.125 7.9109 11.5356 5.5 14.5 5.5C17.4644 5.5 19.875 7.9109 19.875 10.875C19.875 12.8483 18.6583 14.9306 17.503 16.4806C16.3297 18.0548 15.1338 19.1912 15.0285 19.2904ZM14.5 13.0833C15.7172 13.0833 16.7083 12.0922 16.7083 10.875C16.7083 9.65785 15.7171 8.66666 14.5 8.66666C13.2829 8.66666 12.2917 9.65787 12.2917 10.875C12.2917 12.0921 13.2828 13.0833 14.5 13.0833Z" fill="#179EBB" stroke="white"/>
</svg>
