<svg width="17" height="17" viewBox="0 0 17 17" fill="none" xmlns="http://www.w3.org/2000/svg">
<path d="M6.68755 12.2824H5.25195V5.31494H6.68755V12.2824Z" fill="#535353"/>
<path d="M9.45826 9.82751V12.2824H8.02266V5.31494H10.7407C11.2639 5.31494 11.7233 5.41065 12.1189 5.60206C12.5177 5.79347 12.8239 6.06624 13.0377 6.42035C13.2514 6.77128 13.3583 7.17165 13.3583 7.62147C13.3583 8.30418 13.1238 8.84333 12.6549 9.23891C12.1891 9.63131 11.5431 9.82751 10.7168 9.82751H9.45826ZM9.45826 8.66467H10.7407C11.1204 8.66467 11.4091 8.57535 11.6069 8.3967C11.8079 8.21804 11.9084 7.96283 11.9084 7.63104C11.9084 7.28969 11.8079 7.01373 11.6069 6.80318C11.4059 6.59263 11.1283 6.48416 10.7742 6.47778H9.45826V8.66467Z" fill="#535353"/>
<path d="M8.5 1C4.39474 1 1 4.38173 1 8.47126C1 12.5608 4.39474 15.9425 8.5 15.9425C12.6053 15.9425 16 12.5608 16 8.47126C16 4.38173 12.6053 1 8.5 1ZM1.39474 8.47126C1.39474 4.53902 4.55263 1.39322 8.5 1.39322C10.3947 1.39322 12.1316 2.10103 13.3947 3.35935L3.36842 13.3472C2.10526 12.0889 1.39474 10.3587 1.39474 8.47126ZM8.5 15.5493C6.60526 15.5493 4.86842 14.8415 3.60526 13.5832L13.6316 3.59528C14.8158 4.8536 15.6053 6.58379 15.6053 8.47126C15.6053 12.4035 12.4474 15.5493 8.5 15.5493Z" fill="#E30D16" stroke="#FF040F"/>
</svg>
