<svg width="14" height="15" viewBox="0 0 14 15" fill="none" xmlns="http://www.w3.org/2000/svg">
<path d="M12.7171 2.12248H9.15634V1.59185C9.15634 0.712697 8.47311 0 7.63029 0H5.59555C4.75273 0 4.06949 0.712697 4.06949 1.59185V2.12248H0.508694C0.227745 2.12248 0 2.36005 0 2.65311C0 2.94618 0.227775 3.18371 0.508694 3.18371H1.06162L2.03475 14.375C2.05874 14.649 2.27963 14.8584 2.54344 14.8573H10.6824C10.9462 14.8585 11.1671 14.649 11.1911 14.375L12.1642 3.18371H12.7171C12.9981 3.18371 13.2258 2.94614 13.2258 2.65308C13.2258 2.36002 12.9981 2.12248 12.7171 2.12248ZM5.08685 1.59185C5.08685 1.29879 5.3146 1.06123 5.59555 1.06123H7.63029C7.91124 1.06123 8.13899 1.29879 8.13899 1.59185V2.12248H5.08688V1.59185H5.08685ZM10.218 13.7961H3.00787L2.08562 3.18371H4.57819H11.1427L10.218 13.7961Z" fill="#535353"/>
<path d="M5.08708 12.1688C5.08702 12.1681 5.08699 12.1673 5.08693 12.1666L4.57823 4.73796C4.55829 4.44489 4.31436 4.22421 4.03344 4.24501C3.75249 4.26581 3.54093 4.52026 3.56087 4.81329L4.06957 12.2419C4.08855 12.5202 4.31084 12.7356 4.57826 12.7349H4.61489C4.89516 12.7146 5.10657 12.4611 5.08708 12.1688Z" fill="#535353"/>
<path d="M6.61319 4.24487C6.33224 4.24487 6.10449 4.48244 6.10449 4.7755V12.2041C6.10449 12.4972 6.33224 12.7348 6.61319 12.7348C6.89413 12.7348 7.12188 12.4972 7.12188 12.2041V4.7755C7.12188 4.48244 6.89413 4.24487 6.61319 4.24487Z" fill="#535353"/>
<path d="M9.19257 4.24501C8.91162 4.22421 8.66772 4.44489 8.64778 4.73796L8.13909 12.1666C8.11849 12.4589 8.32892 12.7132 8.60909 12.7347C8.60996 12.7348 8.61079 12.7348 8.61166 12.7349H8.64778C8.9152 12.7356 9.13749 12.5202 9.15648 12.2419L9.66517 4.81329C9.68511 4.52026 9.47352 4.26584 9.19257 4.24501Z" fill="#535353"/>
</svg>
