<svg width="14" height="15" viewBox="0 0 14 15" fill="none" xmlns="http://www.w3.org/2000/svg">
<path fill-rule="evenodd" clip-rule="evenodd" d="M11.4402 2.48725C11.601 2.30109 11.7028 2.07097 11.7224 1.84885C11.7422 1.62626 11.6778 1.42992 11.544 1.30437L10.5908 0.452249C10.445 0.364347 10.2626 0.339705 10.0701 0.383358C9.86054 0.430811 9.65248 0.556117 9.4813 0.736001L8.45593 1.98616L10.4149 3.7374L11.4402 2.48725Z" fill="#535353"/>
<path fill-rule="evenodd" clip-rule="evenodd" d="M7.85645 2.71753L9.81537 4.46877L4.20398 11.3103L2.24506 9.55907L7.85645 2.71753Z" fill="#535353"/>
<path fill-rule="evenodd" clip-rule="evenodd" d="M1.62793 10.3101L3.58683 12.0613L1.17256 13.209C1.10437 13.2333 1.03831 13.2241 0.993392 13.1839C0.948475 13.1438 0.92962 13.077 0.942078 13.003C1.17069 12.1054 1.3993 11.2077 1.62793 10.3101Z" fill="#535353"/>
<rect x="0.924805" y="13.6107" width="12.2397" height="0.608498" rx="0.304249" fill="#535353"/>
</svg>
