<svg width="15" height="16" viewBox="0 0 15 16" fill="none" xmlns="http://www.w3.org/2000/svg">
<path d="M7.53125 11.125C8.35105 11.125 9.01562 10.4954 9.01562 9.71875C9.01562 8.9421 8.35105 8.3125 7.53125 8.3125C6.71145 8.3125 6.04688 8.9421 6.04688 9.71875C6.04688 10.4954 6.71145 11.125 7.53125 11.125Z" stroke="#FF5348" stroke-width="1.3" stroke-linecap="round" stroke-linejoin="round"/>
<path d="M7.53125 11.125V12.8125" stroke="#FF5348" stroke-width="1.3" stroke-linecap="round" stroke-linejoin="round"/>
<path d="M13.4688 6.0625H1.59375C1.26583 6.0625 1 6.31434 1 6.625V14.5C1 14.8107 1.26583 15.0625 1.59375 15.0625H13.4688C13.7967 15.0625 14.0625 14.8107 14.0625 14.5V6.625C14.0625 6.31434 13.7967 6.0625 13.4688 6.0625Z" stroke="#FF5348" stroke-width="1.3" stroke-linecap="round" stroke-linejoin="round"/>
<path d="M4.85938 6.0625V3.53125C4.85938 2.85992 5.14088 2.21609 5.64195 1.74139C6.14302 1.26668 6.82262 1 7.53125 1C8.23988 1 8.91948 1.26668 9.42055 1.74139C9.92162 2.21609 10.2031 2.85992 10.2031 3.53125V6.0625" stroke="#FF5348" stroke-width="1.3" stroke-linecap="round" stroke-linejoin="round"/>
</svg>
