<svg width="16" height="20" viewBox="0 0 16 20" fill="none" xmlns="http://www.w3.org/2000/svg">
<path d="M8 10.2783V1.20618L14.6667 4.50515V10.2783H8Z" fill="#878787"/>
<path d="M8.00033 10.2783H0.916992C1.91699 15.2268 6.05588 17.8385 8.00033 18.5257V10.2783Z" fill="#C4C4C4"/>
<path d="M1.125 9.45361V4.91753C1.125 4.75347 1.19085 4.59614 1.30806 4.48014C1.42527 4.36414 1.58424 4.29897 1.75 4.29897L8 1L14.25 4.29897C14.4158 4.29897 14.5747 4.36414 14.6919 4.48014C14.8092 4.59614 14.875 4.75347 14.875 4.91753V9.45361C14.875 15.9496 9.30422 18.1018 8.19189 18.4668C8.06754 18.5092 7.93246 18.5092 7.80811 18.4668C6.69578 18.1018 1.125 15.9496 1.125 9.45361Z" stroke="#535353" stroke-width="1.25" stroke-linecap="round" stroke-linejoin="round"/>
</svg>
