<svg width="15" height="16" viewBox="0 0 15 16" fill="none" xmlns="http://www.w3.org/2000/svg">
<path d="M7.43749 11.1982C8.24541 11.1982 8.90037 10.564 8.90037 9.78177C8.90037 8.99951 8.24541 8.36536 7.43749 8.36536C6.62956 8.36536 5.97461 8.99951 5.97461 9.78177C5.97461 10.564 6.62956 11.1982 7.43749 11.1982Z" stroke="#535353" stroke-width="1.3" stroke-linecap="round" stroke-linejoin="round"/>
<path d="M7.43652 11.1981V12.8978" stroke="#535353" stroke-width="1.3" stroke-linecap="round" stroke-linejoin="round"/>
<path d="M13.2881 6.09912H1.58515C1.26198 6.09912 1 6.35278 1 6.66569V14.5977C1 14.9106 1.26198 15.1642 1.58515 15.1642H13.2881C13.6113 15.1642 13.8732 14.9106 13.8732 14.5977V6.66569C13.8732 6.35278 13.6113 6.09912 13.2881 6.09912Z" stroke="#535353" stroke-width="1.3" stroke-linecap="round" stroke-linejoin="round"/>
<path d="M4.80469 6.0991V3.54955C4.80469 2.87337 5.08211 2.22488 5.57592 1.74675C6.06974 1.26861 6.7395 1 7.43785 1C8.13621 1 8.80597 1.26861 9.29978 1.74675C9.7936 2.22488 10.071 2.87337 10.071 3.54955" stroke="#535353" stroke-width="1.3" stroke-linecap="round" stroke-linejoin="round"/>
</svg>
