<svg width="47" height="53" viewBox="0 0 47 53" fill="none" xmlns="http://www.w3.org/2000/svg">
<path d="M33.3801 22.7734C33.3801 21.63 32.4629 20.7031 31.3315 20.7031H10.2314C9.09998 20.7031 8.18285 21.63 8.18285 22.7734C8.18285 23.9169 9.09998 24.8438 10.2314 24.8438H31.3315C32.4629 24.8438 33.3801 23.9169 33.3801 22.7734Z" fill="#FF9900" fill-opacity="0.8"/>
<path d="M10.2314 28.9844C9.09998 28.9844 8.18285 29.9113 8.18285 31.0547C8.18285 32.1981 9.09998 33.125 10.2314 33.125H23.0462C24.1776 33.125 25.0948 32.1981 25.0948 31.0547C25.0948 29.9113 24.1776 28.9844 23.0462 28.9844H10.2314Z" fill="#FF9900" fill-opacity="0.8"/>
<path d="M15.0455 48.8594H8.19421C5.93507 48.8594 4.09711 47.0019 4.09711 44.7188V8.28125C4.09711 5.99811 5.93507 4.14062 8.19421 4.14062H33.3801C35.6392 4.14062 37.4772 5.99811 37.4772 8.28125V21.0137C37.4772 22.1571 38.3943 23.084 39.5257 23.084C40.6571 23.084 41.5743 22.1571 41.5743 21.0137V8.28125C41.5743 3.71497 37.8983 0 33.3801 0H8.19421C3.67592 0 0 3.71497 0 8.28125V44.7188C0 49.285 3.67592 53 8.19421 53H15.0455C16.1769 53 17.0941 52.0731 17.0941 50.9297C17.0941 49.7863 16.1769 48.8594 15.0455 48.8594Z" fill="#FF9900" fill-opacity="0.8"/>
<path d="M45.2028 29.9752C42.8066 27.5536 38.9078 27.5535 36.5131 29.9736L25.2662 41.3147C25.0274 41.5556 24.8512 41.8523 24.7531 42.1786L22.3037 50.3278C22.0866 51.0504 22.2758 51.8349 22.7975 52.3754C23.1884 52.7802 23.7194 53 24.264 53C24.4462 53 24.6302 52.9754 24.8107 52.9247L33.0792 50.61C33.4195 50.5148 33.7296 50.3323 33.9796 50.0801L45.2029 38.7589C47.5991 36.3373 47.5991 32.3971 45.2028 29.9752ZM31.4664 46.765L27.3066 47.9296L28.524 43.8791L36.1127 36.2267L39.0104 39.1552L31.4664 46.765ZM42.3072 35.8299L41.9103 36.2302L39.0132 33.3022L39.4087 32.9033C40.2075 32.0961 41.5071 32.0961 42.3058 32.9033C43.1045 33.7105 43.1045 35.0239 42.3072 35.8299Z" fill="#FF9900" fill-opacity="0.8"/>
<path d="M31.3315 12.4219H10.2314C9.09998 12.4219 8.18285 13.3488 8.18285 14.4922C8.18285 15.6356 9.09998 16.5625 10.2314 16.5625H31.3315C32.4629 16.5625 33.3801 15.6356 33.3801 14.4922C33.3801 13.3488 32.4629 12.4219 31.3315 12.4219Z" fill="#FF9900" fill-opacity="0.8"/>
</svg>
