<svg width="16" height="19" viewBox="0 0 16 19" fill="none" xmlns="http://www.w3.org/2000/svg">
<path d="M5.40288 9.07277C5.18553 8.85538 4.83306 8.85538 4.61568 9.07277C4.39829 9.29016 4.39829 9.64259 4.61568 9.85998L6.34746 11.5918C6.45616 11.7005 6.59862 11.7548 6.74105 11.7548C6.88347 11.7548 7.02597 11.7005 7.13463 11.5918L10.5982 8.12822C10.8156 7.91084 10.8156 7.55841 10.5982 7.34102C10.3808 7.12363 10.0284 7.12363 9.81096 7.34102L6.74101 10.4109L5.40288 9.07277Z" fill="#3E97CF"/>
<path d="M14.6549 2.59766C13.0505 2.59766 11.5887 1.71609 10.8402 0.29695C10.7439 0.114297 10.5543 0 10.3479 0H4.86702C4.66054 0 4.47099 0.114297 4.37465 0.29695C3.62615 1.71609 2.16441 2.59766 0.556642 2.59766C0.249227 2.59766 0 2.84689 0 3.15431V8.82282C0 11.1016 0.71202 13.2777 2.05906 15.1157C3.40617 16.9537 5.26677 18.288 7.43982 18.9742C7.49437 18.9914 7.55089 19 7.60745 19C7.664 19 7.72052 18.9914 7.77507 18.9742C9.94813 18.288 11.8087 16.9537 13.1558 15.1157C14.5029 13.2777 15.2149 11.1016 15.2149 8.82282V3.15431C15.2149 2.84689 14.9623 2.59766 14.6549 2.59766ZM14.1016 8.82282C14.1016 12.9425 11.4993 16.5512 7.60745 17.858C3.71563 16.5512 1.11328 12.9425 1.11328 8.82282V3.68301C2.79798 3.51201 4.30463 2.56657 5.1908 1.11328H10.0241C10.9098 2.56582 12.4156 3.51104 14.1016 3.68275V8.82282Z" fill="#3E97CF"/>
<path d="M9.59643 2.43096C9.49071 2.3016 9.33244 2.22656 9.16537 2.22656H6.04947C5.8824 2.22656 5.72417 2.3016 5.61848 2.43096C4.83139 3.39399 3.79084 4.10835 2.60935 4.49674C2.38094 4.57181 2.22656 4.78508 2.22656 5.02555V8.82285C2.22656 12.2318 4.25456 15.2802 7.39321 16.5889C7.46178 16.6175 7.53463 16.6318 7.60744 16.6318C7.68025 16.6318 7.75313 16.6175 7.82167 16.5889C10.9603 15.2802 12.9883 12.2318 12.9883 8.82285V5.02592C12.9883 4.78548 12.834 4.57222 12.6056 4.49711C11.424 4.10857 10.3835 3.39414 9.59643 2.43096ZM11.875 8.82285C11.875 11.7027 10.2077 14.2858 7.60744 15.468C5.00721 14.2858 3.33985 11.7027 3.33985 8.82285V5.41716C4.48223 4.97318 5.49802 4.26254 6.30742 3.33985H8.90742C9.71685 4.26265 10.7325 4.97341 11.875 5.41746V8.82285Z" fill="#3E97CF"/>
</svg>
