<svg width="53" height="53" viewBox="0 0 53 53" fill="none" xmlns="http://www.w3.org/2000/svg">
<path d="M15.5068 33.3675L20.1572 35.4989L21.2348 42.921C21.4532 44.4326 22.7508 45.5217 24.2351 45.521C24.3791 45.521 24.5265 45.5106 24.6738 45.4897C26.3342 45.249 27.4848 43.7081 27.2425 42.0488L25.9279 32.9909C25.7801 31.971 25.1245 31.0961 24.1879 30.6675L19.3571 28.4538C19.3575 28.4296 19.3646 28.4073 19.3646 28.3827L19.3873 22.7014C16.5745 18.5728 17.1846 13.3372 17.4876 11.6352L11.4299 11.1082C11.5417 13.1052 11.4479 17.451 8.98623 20.6882L8.97756 22.8636L6.6057 19.9664L7.8497 19.2887C9.80353 16.4082 9.78318 12.5115 9.67914 10.9559L7.58491 10.7736C6.75134 10.7016 6.00433 11.2819 5.86706 12.107L5.44055 14.6741L1.35735 16.899C0.676133 17.2699 0.19682 17.9248 0.0476413 18.6856C-0.0997141 19.4461 0.0985459 20.2332 0.589879 20.8326L6.62959 28.209C7.14276 28.8378 7.89 29.163 8.64385 29.163C8.77365 29.163 8.89975 29.1169 9.02876 29.0975C9.04752 29.2285 9.0589 29.3606 9.08718 29.4883C9.08406 29.5991 9.07163 29.7078 9.08097 29.8209L9.84502 39.1482L8.03906 48.4815C7.72046 50.1273 8.79623 51.7207 10.4414 52.0392C10.6379 52.0764 10.831 52.095 11.0225 52.095C12.4473 52.095 13.7196 51.0862 13.999 49.635L15.8847 39.8928C15.9371 39.6208 15.9525 39.344 15.9305 39.0678L15.4645 33.3809C15.4789 33.3768 15.4924 33.3712 15.5068 33.3675Z" fill="#5CC773" fill-opacity="0.8"/>
<path d="M20.4696 21.1877L23.1477 23.2961C23.6087 23.6585 24.1762 23.8535 24.757 23.8535C24.8489 23.8535 24.9401 23.8483 25.0317 23.839L31.8733 23.1134L29.6008 41.9708C29.5145 42.6841 30.0228 43.3319 30.7361 43.4183C30.7882 43.4242 30.841 43.4276 30.8935 43.4276C31.5425 43.4276 32.1051 42.9431 32.1829 42.2826L34.5387 22.7305C35.6096 22.3171 36.3185 21.2338 36.1912 20.0383C36.109 19.2594 35.6818 18.6033 35.0864 18.1854L35.22 17.0739L39.0423 18.349C41.0938 19.0336 43.2676 19.2725 45.4173 19.0514L49.0007 18.6812C49.5682 18.6228 50.0188 18.1796 50.0865 17.6146L50.9911 10.1187C51.035 9.7511 50.9096 9.38256 50.6507 9.11833C50.3894 8.85406 50.0236 8.72181 49.656 8.76006L48.1348 8.91676C45.0258 9.23789 41.8934 8.59239 39.1625 7.06942L36.5979 5.63777L36.6619 5.10851C36.7483 4.39526 36.24 3.74726 35.527 3.66079C34.8204 3.58041 34.1628 4.08268 34.0799 4.7968L32.5118 17.8117L25.5347 18.5518L22.5512 16.2029L23.1491 14.0241C23.2745 13.5656 23.1897 13.0754 22.9188 12.6856C22.6479 12.2952 22.2174 12.046 21.7429 12.0054L19.2249 11.7864C19.0031 12.9923 18.363 17.5488 20.4696 21.1877Z" fill="#5CC773" fill-opacity="0.8"/>
<path d="M17.793 9.85308C20.4341 8.91191 21.8098 6.01057 20.8713 3.37198C19.931 0.733497 17.0289 -0.64487 14.3896 0.295562C11.7499 1.23577 10.3743 4.13625 11.3128 6.7757C12.253 9.41504 15.1552 10.7925 17.793 9.85308Z" fill="#5CC773" fill-opacity="0.8"/>
<path d="M51.9117 25.547C51.4986 25.381 51.0257 25.4826 50.7176 25.8026L44.7169 32.0414C44.478 32.2915 44.1952 32.4973 43.8834 32.6498L38.1875 35.4451C37.4846 35.7901 36.9458 36.3981 36.6883 37.1367L34.9435 42.1498C34.6502 42.9911 33.9964 43.6568 33.1596 43.9634L19.6501 48.9196C19.4045 49.0104 19.1928 49.1756 19.0455 49.3922L17.817 51.2032C17.7053 51.3688 17.6951 51.582 17.7883 51.7584C17.8813 51.9344 18.0643 52.0445 18.2642 52.0445H49.7467C51.3189 52.0445 52.5948 50.7697 52.5948 49.1968V26.5595C52.5945 26.1137 52.3236 25.7141 51.9117 25.547Z" fill="#5CC773" fill-opacity="0.8"/>
</svg>
