<svg width="13" height="13" viewBox="0 0 13 13" fill="none" xmlns="http://www.w3.org/2000/svg">
<path d="M11.8991 2.88337L11.7046 2.94503L10.6687 3.03731L10.3761 3.50449L10.1638 3.43704L9.33934 2.69385L9.21973 2.30736L9.05956 1.89521L8.5414 1.43051L7.93012 1.31092L7.91605 1.59065L8.51491 2.17494L8.80793 2.52005L8.47849 2.69219L8.21031 2.61316L7.80844 2.44557L7.8221 2.12156L7.29483 1.90473L7.11977 2.66654L6.58836 2.78696L6.64092 3.21193L7.33332 3.34517L7.45293 2.66613L8.02448 2.75054L8.29018 2.90613H8.71647L9.00824 3.49042L9.78176 4.27499L9.72506 4.57996L9.10137 4.50051L8.02365 5.04466L7.24765 5.9753L7.14667 6.38745H6.86813L6.34914 6.14827L5.84505 6.38745L5.97046 6.91918L6.18981 6.66635L6.57553 6.65435L6.54863 7.13188L6.86813 7.22539L7.18723 7.58375L7.70829 7.43726L8.30343 7.53119L8.99459 7.71699L9.33975 7.75754L9.92496 8.4217L11.0544 9.08585L10.3239 10.4812L9.55289 10.8395L9.26029 11.6369L8.1445 12.3818L8.02572 12.8113C10.8781 12.1244 13 9.56255 13 6.49959C12.9992 5.16176 12.5936 3.91663 11.8991 2.88337Z" fill="#888888"/>
<path d="M7.24724 9.8969L6.77377 9.01923L7.20833 8.11383L6.77377 7.98389L6.28582 7.49395L5.2048 7.25146L4.84598 6.50083V6.94649H4.68788L3.75626 5.68357V4.64617L3.07338 3.53594L1.98905 3.72918H1.25857L0.891057 3.48835L1.35997 3.11676L0.892299 3.22476C0.328611 4.18726 0 5.30411 0 6.50041C0 10.0893 2.9099 13 6.49979 13C6.77626 13 7.04734 12.9756 7.31553 12.9433L7.24765 12.1558C7.24765 12.1558 7.54605 10.9864 7.54605 10.9467C7.54564 10.9066 7.24724 9.8969 7.24724 9.8969Z" fill="#888888"/>
<path d="M2.41533 2.09591L3.57002 1.93494L4.10226 1.64321L4.70112 1.81576L5.65799 1.7628L5.98577 1.24761L6.46379 1.32624L7.62468 1.21741L7.9446 0.864846L8.39572 0.563598L9.0339 0.6596L9.2665 0.624427C8.42593 0.228832 7.49059 0 6.49938 0C4.48177 0 2.67772 0.919468 1.48661 2.36322H1.48992L2.41533 2.09591ZM6.77419 0.646359L7.43803 0.280971L7.86431 0.527184L7.24724 0.996849L6.65789 1.05602L6.3926 0.883881L6.77419 0.646359ZM4.8079 0.699739L5.10092 0.821811L5.48457 0.699739L5.69358 1.06182L4.8079 1.29437L4.38203 1.04526C4.38203 1.04526 4.79838 0.77712 4.8079 0.699739Z" fill="#888888"/>
</svg>
