<svg width="74" height="44" viewBox="0 0 74 44" fill="none" xmlns="http://www.w3.org/2000/svg">
<path fill-rule="evenodd" clip-rule="evenodd" d="M44.2392 6.43506C49.1253 6.43506 53.087 10.7566 53.087 16.0872C53.087 21.4179 49.1248 25.7394 44.2392 25.7394C39.3536 25.7394 35.3914 21.4179 35.3914 16.0872C35.3914 10.7566 39.3525 6.43506 44.2392 6.43506Z" fill="#1E9AE9" fill-opacity="0.8"/>
<path d="M20.0172 21.5023C25.9549 21.5023 30.7684 16.6888 30.7684 10.7511C30.7684 4.81345 25.9549 0 20.0172 0C14.0796 0 9.26611 4.81345 9.26611 10.7511C9.26611 16.6888 14.0796 21.5023 20.0172 21.5023Z" fill="#1E9AE9" fill-opacity="0.8"/>
<path fill-rule="evenodd" clip-rule="evenodd" d="M61.0641 43.4344H43.9418C43.7522 40.4868 43.128 37.5862 42.0908 34.8324C40.9026 31.6765 39.179 28.7638 37.0005 26.2303L37.9259 25.7388C39.9266 27.1818 42.3096 27.9559 44.7517 27.9559C47.1937 27.9559 49.5767 27.1818 51.5774 25.7388C54.7238 27.3514 57.3098 29.9266 58.9816 33.1119C60.6416 36.2683 61.3657 39.8576 61.0641 43.4344Z" fill="#1E9AE9" fill-opacity="0.8"/>
<path fill-rule="evenodd" clip-rule="evenodd" d="M11.8466 23.1606C14.2248 24.8783 17.0838 25.8029 20.0175 25.8029C22.9511 25.8029 25.8102 24.8783 28.1883 23.1606C31.9236 24.981 35.0153 27.8965 37.0513 31.5187C39.0874 35.1408 39.9711 39.2975 39.5846 43.4347H0.0203546C-0.196173 38.2294 1.31522 33.1147 4.53583 29.0282C6.50058 26.5475 8.9995 24.5419 11.8466 23.1606Z" fill="#1E9AE9" fill-opacity="0.8"/>
<path d="M73.1956 18.5003H66.7609V12.0655C66.7609 11.6216 66.4005 11.2612 65.9565 11.2612C65.5126 11.2612 65.1522 11.6216 65.1522 12.0655V18.5003H58.7174C58.2735 18.5003 57.9131 18.8607 57.9131 19.3046C57.9131 19.7487 58.2735 20.1091 58.7174 20.1091H65.1522V26.5437C65.1522 26.9878 65.5126 27.3482 65.9565 27.3482C66.4005 27.3482 66.7609 26.9878 66.7609 26.5437V20.1091H73.1956C73.6396 20.1091 74 19.7487 74 19.3046C74 18.8607 73.6396 18.5003 73.1956 18.5003Z" fill="#1E9AE9" fill-opacity="0.8"/>
</svg>
